<?xml version="1.0" standalone="no"?><!DOCTYPE svg PUBLIC "-//W3C//DTD SVG 1.1//EN" "http://www.w3.org/Graphics/SVG/1.1/DTD/svg11.dtd"><svg class="icon" height="512" viewBox="0 0 1024 1024" version="1.1" xmlns="http://www.w3.org/2000/svg"><path d="M512 72.533333c-242.346667 0-439.466667 197.162667-439.466667 439.466667 0 242.346667 197.12 439.466667 439.466667 439.466667s439.466667-197.12 439.466667-439.466667c0-242.304-197.12-439.466667-439.466667-439.466667z m0 828.714667c-214.613333 0-389.248-174.592-389.248-389.248 0-214.613333 174.634667-389.248 389.248-389.248 214.656 0 389.248 174.634667 389.248 389.248 0 214.656-174.592 389.248-389.248 389.248z" fill="#333333" /><path d="M761.429333 329.728c-32.426667-35.413333-75.818667-54.954667-122.282666-54.954667-48.512 0-94.72 22.058667-127.146667 60.629334-32.384-38.570667-78.592-60.629333-127.146667-60.629334-46.421333 0-89.856 19.541333-122.282666 54.954667a188.8 188.8 0 0 0-48.768 127.957333c0 26.112 5.205333 51.029333 15.786666 76.245334 8.789333 20.864 20.138667 39.210667 31.957334 57.770666 26.026667 40.832 70.784 90.069333 133.12 146.389334a1705.088 1705.088 0 0 0 90.453333 76.202666c7.68 5.888 17.194667 9.173333 26.837333 9.173334s19.157333-3.285333 26.837334-9.173334a1677.653333 1677.653333 0 0 0 90.453333-76.202666c62.293333-56.362667 107.093333-105.6 133.12-146.389334 20.138667-31.573333 47.786667-74.837333 47.786667-134.016a188.757333 188.757333 0 0 0-48.725334-127.957333z m-40.106666 235.818667c-53.802667 84.437333-188.416 191.573333-209.322667 207.914666-20.906667-16.426667-155.861333-124.032-209.322667-207.914666-10.666667-16.725333-20.778667-33.152-28.16-50.56a144.768 144.768 0 0 1-11.946666-57.344c0-35.968 12.757333-69.717333 35.968-95.061334 23.082667-25.258667 53.717333-39.125333 86.357333-39.125333 43.306667 0 83.797333 25.557333 105.6 66.645333a24.32 24.32 0 0 0 43.050667 0c21.845333-41.088 62.336-66.645333 105.642666-66.645333 32.597333 0 63.274667 13.909333 86.314667 39.125333 23.210667 25.386667 35.968 59.136 35.968 95.061334-0.042667 44.970667-21.333333 78.378667-40.149333 107.904z" fill="#333333" /></svg>